<svg width="796" height="140" viewBox="0 0 796 140" fill="none" xmlns="http://www.w3.org/2000/svg">
<path d="M524.166 85.1025C524.631 85.9046 525.132 86.4948 525.67 86.873C526.212 87.2513 526.827 87.4678 527.516 87.5225V87.7412C526.887 87.7184 526.215 87.5908 525.499 87.3584C524.784 87.1305 524.104 86.8115 523.462 86.4014C522.824 85.9958 522.272 85.5628 521.808 85.1025C521.151 84.8382 520.632 84.5579 520.249 84.2617C519.693 83.8197 519.26 83.2773 518.95 82.6348C518.645 81.9876 518.492 81.2243 518.492 80.3447C518.492 78.9593 518.941 77.8086 519.839 76.8926C520.737 75.9766 521.824 75.5186 523.1 75.5186C524.312 75.5186 525.36 75.9788 526.244 76.8994C527.133 77.8154 527.577 78.973 527.577 80.3721C527.577 81.5068 527.26 82.5026 526.627 83.3594C525.998 84.2161 525.178 84.7972 524.166 85.1025ZM523.018 76.0449C522.188 76.0449 521.521 76.3411 521.015 76.9336C520.377 77.6764 520.058 78.8135 520.058 80.3447C520.058 81.8441 520.381 82.9993 521.028 83.8105C521.53 84.4349 522.193 84.7471 523.018 84.7471C523.874 84.7471 524.565 84.4349 525.089 83.8105C525.704 83.0723 526.012 81.9831 526.012 80.543C526.012 79.4355 525.843 78.5036 525.506 77.7471C525.246 77.1637 524.9 76.7354 524.467 76.4619C524.038 76.1839 523.555 76.0449 523.018 76.0449ZM537.578 85H535.104L531.966 80.666C531.733 80.6751 531.544 80.6797 531.398 80.6797C531.339 80.6797 531.275 80.6797 531.207 80.6797C531.139 80.6751 531.068 80.6706 530.995 80.666V83.3594C530.995 83.9427 531.059 84.305 531.187 84.4463C531.36 84.6468 531.619 84.7471 531.966 84.7471H532.328V85H528.356V84.7471H528.705C529.097 84.7471 529.377 84.6195 529.546 84.3643C529.642 84.223 529.689 83.888 529.689 83.3594V77.3711C529.689 76.7878 529.626 76.4255 529.498 76.2842C529.32 76.0837 529.056 75.9834 528.705 75.9834H528.356V75.7305H531.733C532.718 75.7305 533.442 75.8034 533.907 75.9492C534.377 76.0905 534.773 76.3548 535.097 76.7422C535.425 77.125 535.589 77.583 535.589 78.1162C535.589 78.6859 535.402 79.1803 535.028 79.5996C534.659 80.0189 534.085 80.3151 533.306 80.4883L535.22 83.1475C535.657 83.7581 536.033 84.1637 536.348 84.3643C536.662 84.5648 537.072 84.6924 537.578 84.7471V85ZM530.995 80.2354C531.082 80.2354 531.157 80.2376 531.221 80.2422C531.285 80.2422 531.337 80.2422 531.378 80.2422C532.262 80.2422 532.927 80.0508 533.374 79.668C533.825 79.2852 534.051 78.7975 534.051 78.2051C534.051 77.6263 533.868 77.1569 533.504 76.7969C533.144 76.4323 532.665 76.25 532.068 76.25C531.804 76.25 531.446 76.2933 530.995 76.3799V80.2354ZM538.022 81.3428H541.557V82.375H538.022V81.3428ZM548.837 85H546.991C546.417 84.166 545.897 83.3115 545.433 82.4365C545.323 82.236 545.223 82.0879 545.132 81.9922C545.045 81.8919 544.924 81.8418 544.77 81.8418C544.715 81.8418 544.628 81.8464 544.51 81.8555V83.5303C544.51 83.9814 544.535 84.2708 544.585 84.3984C544.64 84.5215 544.735 84.6104 544.872 84.665C545.009 84.7197 545.239 84.7471 545.562 84.7471V85H542.432V84.7471C542.837 84.7471 543.097 84.6742 543.211 84.5283C543.325 84.3779 543.382 84.0452 543.382 83.5303V80.208C543.382 79.7204 543.357 79.4333 543.307 79.3467C543.257 79.2555 543.179 79.1758 543.074 79.1074C542.969 79.0345 542.755 78.998 542.432 78.998V78.7383H545.562V78.998C545.184 78.998 544.95 79.0254 544.858 79.0801C544.772 79.1348 544.692 79.2031 544.619 79.2852C544.546 79.3626 544.51 79.6702 544.51 80.208V81.4385C544.615 81.4476 544.685 81.4521 544.722 81.4521C545 81.4521 545.259 81.3747 545.501 81.2197C545.747 81.0602 545.966 80.7253 546.157 80.2148C546.335 79.7318 546.481 79.4059 546.595 79.2373C546.713 79.0687 546.875 78.932 547.08 78.8271C547.29 78.7178 547.508 78.6631 547.736 78.6631C547.982 78.6631 548.178 78.7223 548.324 78.8408C548.47 78.9593 548.543 79.1143 548.543 79.3057C548.543 79.4652 548.491 79.6019 548.386 79.7158C548.281 79.8252 548.135 79.8799 547.948 79.8799C547.848 79.8799 547.723 79.8525 547.572 79.7979C547.381 79.7295 547.235 79.6953 547.135 79.6953C546.925 79.6953 546.752 79.8753 546.615 80.2354C546.46 80.6501 546.346 80.9189 546.273 81.042C546.201 81.1605 546.062 81.32 545.856 81.5205C545.998 81.5615 546.15 81.6663 546.314 81.835C546.483 82.0036 546.793 82.4844 547.244 83.2773C547.604 83.9108 547.873 84.3118 548.051 84.4805C548.233 84.6491 548.495 84.738 548.837 84.7471V85ZM551.715 78.5537C552.663 78.5537 553.424 78.9137 553.998 79.6338C554.486 80.249 554.729 80.9554 554.729 81.7529C554.729 82.3135 554.595 82.8809 554.326 83.4551C554.057 84.0293 553.686 84.4622 553.212 84.7539C552.743 85.0456 552.218 85.1914 551.64 85.1914C550.696 85.1914 549.947 84.8154 549.391 84.0635C548.921 83.43 548.687 82.7191 548.687 81.9307C548.687 81.3564 548.828 80.7868 549.11 80.2217C549.397 79.652 549.773 79.2327 550.238 78.9639C550.703 78.6904 551.195 78.5537 551.715 78.5537ZM551.503 78.998C551.261 78.998 551.018 79.071 550.771 79.2168C550.53 79.3581 550.334 79.6087 550.184 79.9688C550.033 80.3288 549.958 80.7913 549.958 81.3564C549.958 82.2679 550.138 83.054 550.498 83.7148C550.863 84.3757 551.341 84.7061 551.934 84.7061C552.376 84.7061 552.74 84.5238 553.027 84.1592C553.314 83.7946 553.458 83.168 553.458 82.2793C553.458 81.1673 553.219 80.2923 552.74 79.6543C552.417 79.2168 552.004 78.998 551.503 78.998ZM556.097 78.7383H561.62V78.998C561.31 78.998 561.103 79.0299 560.998 79.0938C560.898 79.153 560.818 79.2282 560.759 79.3193C560.7 79.4105 560.67 79.7067 560.67 80.208V83.3047C560.67 83.9564 560.725 84.3574 560.834 84.5078C560.948 84.6536 561.21 84.7334 561.62 84.7471V86.7363H561.36C561.342 86.3626 561.249 86.0368 561.08 85.7588C560.916 85.4808 560.686 85.2848 560.39 85.1709C560.093 85.057 559.656 85 559.077 85H557.464C556.963 85 556.571 85.0433 556.288 85.1299C556.006 85.221 555.769 85.4079 555.577 85.6904C555.39 85.973 555.276 86.3216 555.235 86.7363H554.982V84.7471C555.356 84.7334 555.696 84.5853 556.001 84.3027C556.306 84.0202 556.575 83.4665 556.808 82.6416C557.04 81.8167 557.156 81.0055 557.156 80.208C557.156 79.4242 556.803 79.0208 556.097 78.998V78.7383ZM557.607 79.1826V79.5586C557.607 81.7962 557.202 83.4619 556.391 84.5557H558.715C559.134 84.5557 559.376 84.5215 559.439 84.4531C559.503 84.3802 559.535 84.1182 559.535 83.667V79.1826H557.607ZM566.72 78.7383H572.243V78.998C571.933 78.998 571.726 79.0299 571.621 79.0938C571.521 79.153 571.441 79.2282 571.382 79.3193C571.323 79.4105 571.293 79.7067 571.293 80.208V83.3047C571.293 83.9564 571.348 84.3574 571.457 84.5078C571.571 84.6536 571.833 84.7334 572.243 84.7471V86.7363H571.983C571.965 86.3626 571.872 86.0368 571.703 85.7588C571.539 85.4808 571.309 85.2848 571.013 85.1709C570.716 85.057 570.279 85 569.7 85H568.087C567.586 85 567.194 85.0433 566.911 85.1299C566.629 85.221 566.392 85.4079 566.2 85.6904C566.013 85.973 565.899 86.3216 565.858 86.7363H565.605V84.7471C565.979 84.7334 566.319 84.5853 566.624 84.3027C566.929 84.0202 567.198 83.4665 567.431 82.6416C567.663 81.8167 567.779 81.0055 567.779 80.208C567.779 79.4242 567.426 79.0208 566.72 78.998V78.7383ZM568.23 79.1826V79.5586C568.23 81.7962 567.825 83.4619 567.014 84.5557H569.338C569.757 84.5557 569.999 84.5215 570.062 84.4531C570.126 84.3802 570.158 84.1182 570.158 83.667V79.1826H568.23ZM573.631 78.7383H579.229V78.998C578.92 78.998 578.712 79.0299 578.607 79.0938C578.507 79.153 578.427 79.2282 578.368 79.3193C578.309 79.4105 578.279 79.7067 578.279 80.208V83.5303C578.279 84.0133 578.304 84.3027 578.354 84.3984C578.405 84.4896 578.482 84.5716 578.587 84.6445C578.696 84.7129 578.91 84.7471 579.229 84.7471V85H575.989V84.7471C576.34 84.7471 576.582 84.7288 576.714 84.6924C576.851 84.6559 576.958 84.5693 577.035 84.4326C577.113 84.2913 577.151 83.9906 577.151 83.5303V79.1826H575.066V81.8213C575.066 82.8193 575.021 83.5212 574.93 83.9268C574.843 84.3278 574.668 84.6263 574.403 84.8223C574.144 85.0137 573.845 85.1094 573.508 85.1094C572.924 85.1094 572.633 84.8678 572.633 84.3848C572.633 84.2207 572.678 84.0863 572.77 83.9814C572.865 83.8766 572.988 83.8242 573.139 83.8242C573.298 83.8242 573.446 83.8903 573.583 84.0225C573.761 84.1956 573.895 84.2822 573.986 84.2822C574.191 84.2822 574.34 84.1113 574.431 83.7695C574.526 83.4232 574.574 82.8193 574.574 81.958V80.5771C574.574 79.8662 574.522 79.4333 574.417 79.2783C574.317 79.1234 574.055 79.0299 573.631 78.998V78.7383ZM585.662 78.7383V78.998C585.38 78.998 585.17 79.0368 585.033 79.1143C584.901 79.1917 584.814 79.2897 584.773 79.4082C584.732 79.5267 584.712 79.7933 584.712 80.208V83.5303C584.712 83.9268 584.73 84.1888 584.767 84.3164C584.803 84.4395 584.89 84.542 585.026 84.624C585.168 84.7061 585.38 84.7471 585.662 84.7471V85H582.634V84.7471C583.012 84.7471 583.265 84.6787 583.393 84.542C583.52 84.4007 583.584 84.0635 583.584 83.5303V82.1699L583.304 82.1768C583.263 82.1768 583.19 82.1745 583.085 82.1699L581.089 85H579.53V84.7471C579.758 84.7471 579.915 84.7174 580.002 84.6582C580.093 84.5944 580.259 84.3916 580.501 84.0498L581.964 81.9854C580.916 81.6208 580.392 81.0625 580.392 80.3105C580.392 79.8867 580.578 79.5199 580.952 79.21C581.33 78.8955 581.973 78.7383 582.88 78.7383H585.662ZM583.584 79.2578C583.406 79.2077 583.238 79.1826 583.078 79.1826C582.618 79.1826 582.274 79.2965 582.046 79.5244C581.818 79.7523 581.704 80.0234 581.704 80.3379C581.704 80.7389 581.866 81.0716 582.189 81.3359C582.513 81.6003 582.921 81.7324 583.413 81.7324C583.463 81.7324 583.52 81.7279 583.584 81.7188V79.2578ZM594.576 79.1826H591.869V83.5303C591.869 84.0133 591.894 84.3027 591.944 84.3984C591.994 84.4896 592.072 84.5716 592.177 84.6445C592.286 84.7129 592.5 84.7471 592.819 84.7471V85H589.791V84.7471C590.197 84.7471 590.456 84.6742 590.57 84.5283C590.684 84.3779 590.741 84.0452 590.741 83.5303V80.208C590.741 79.7204 590.716 79.4333 590.666 79.3467C590.616 79.2555 590.538 79.1758 590.434 79.1074C590.329 79.0345 590.115 78.998 589.791 78.998V78.7383H596.654V78.998C596.349 78.998 596.144 79.0299 596.039 79.0938C595.934 79.153 595.852 79.2282 595.793 79.3193C595.734 79.4105 595.704 79.7067 595.704 80.208V83.5303C595.704 84.0133 595.729 84.3027 595.779 84.3984C595.829 84.4896 595.907 84.5716 596.012 84.6445C596.121 84.7129 596.335 84.7471 596.654 84.7471V85H593.626V84.7471C594.004 84.7471 594.257 84.6787 594.385 84.542C594.512 84.4007 594.576 84.0635 594.576 83.5303V79.1826ZM596.955 79.3604L598.883 78.5811H599.143V80.0439C599.466 79.4925 599.79 79.1074 600.113 78.8887C600.441 78.6654 600.785 78.5537 601.146 78.5537C601.774 78.5537 602.299 78.7998 602.718 79.292C603.233 79.8936 603.49 80.6774 603.49 81.6436C603.49 82.7236 603.18 83.6169 602.561 84.3232C602.05 84.902 601.408 85.1914 600.633 85.1914C600.296 85.1914 600.004 85.1436 599.758 85.0479C599.576 84.9795 599.37 84.8428 599.143 84.6377V86.5449C599.143 86.9733 599.168 87.2445 599.218 87.3584C599.272 87.4769 599.364 87.5703 599.491 87.6387C599.623 87.707 599.86 87.7412 600.202 87.7412V87.9941H596.921V87.7412H597.092C597.342 87.7458 597.557 87.6979 597.734 87.5977C597.821 87.5475 597.887 87.4655 597.933 87.3516C597.983 87.2422 598.008 86.9596 598.008 86.5039V80.584C598.008 80.1784 597.99 79.9209 597.953 79.8115C597.917 79.7021 597.857 79.6201 597.775 79.5654C597.698 79.5107 597.591 79.4834 597.454 79.4834C597.345 79.4834 597.206 79.5153 597.037 79.5791L596.955 79.3604ZM599.143 80.4473V82.7852C599.143 83.291 599.163 83.6237 599.204 83.7832C599.268 84.0475 599.423 84.2799 599.669 84.4805C599.92 84.681 600.234 84.7812 600.612 84.7812C601.068 84.7812 601.437 84.6035 601.72 84.248C602.089 83.7832 602.273 83.1292 602.273 82.2861C602.273 81.3291 602.064 80.5931 601.645 80.0781C601.353 79.7227 601.007 79.5449 600.605 79.5449C600.387 79.5449 600.17 79.5996 599.956 79.709C599.792 79.791 599.521 80.0371 599.143 80.4473ZM607.469 78.5537C608.417 78.5537 609.178 78.9137 609.752 79.6338C610.24 80.249 610.483 80.9554 610.483 81.7529C610.483 82.3135 610.349 82.8809 610.08 83.4551C609.811 84.0293 609.44 84.4622 608.966 84.7539C608.496 85.0456 607.972 85.1914 607.394 85.1914C606.45 85.1914 605.701 84.8154 605.145 84.0635C604.675 83.43 604.44 82.7191 604.44 81.9307C604.44 81.3564 604.582 80.7868 604.864 80.2217C605.151 79.652 605.527 79.2327 605.992 78.9639C606.457 78.6904 606.949 78.5537 607.469 78.5537ZM607.257 78.998C607.015 78.998 606.771 79.071 606.525 79.2168C606.284 79.3581 606.088 79.6087 605.938 79.9688C605.787 80.3288 605.712 80.7913 605.712 81.3564C605.712 82.2679 605.892 83.054 606.252 83.7148C606.617 84.3757 607.095 84.7061 607.688 84.7061C608.13 84.7061 608.494 84.5238 608.781 84.1592C609.068 83.7946 609.212 83.168 609.212 82.2793C609.212 81.1673 608.973 80.2923 608.494 79.6543C608.171 79.2168 607.758 78.998 607.257 78.998ZM615.378 81.6914C616.522 81.9284 617.094 82.4639 617.094 83.2979C617.094 83.8675 616.854 84.2936 616.376 84.5762C615.902 84.8587 615.239 85 614.387 85H611.297V84.7471C611.702 84.7471 611.958 84.6719 612.062 84.5215C612.172 84.3665 612.227 84.0361 612.227 83.5303V80.208C612.227 79.7158 612.201 79.4264 612.151 79.3398C612.106 79.2533 612.031 79.1758 611.926 79.1074C611.826 79.0345 611.616 78.998 611.297 78.998V78.7383H614.182C614.738 78.7383 615.187 78.7816 615.528 78.8682C615.875 78.9548 616.157 79.1257 616.376 79.3809C616.599 79.6361 616.711 79.946 616.711 80.3105C616.711 81.0215 616.267 81.4818 615.378 81.6914ZM613.361 81.5342C613.562 81.5387 613.683 81.541 613.724 81.541C614.348 81.541 614.799 81.4225 615.077 81.1855C615.355 80.944 615.494 80.6523 615.494 80.3105C615.494 79.9141 615.353 79.627 615.07 79.4492C614.788 79.2715 614.337 79.1826 613.717 79.1826H613.361V81.5342ZM613.361 84.4463C613.589 84.5192 613.86 84.5557 614.175 84.5557C614.717 84.5557 615.12 84.4372 615.385 84.2002C615.649 83.9632 615.781 83.6579 615.781 83.2842C615.781 82.8649 615.61 82.5436 615.269 82.3203C614.927 82.097 614.453 81.9854 613.847 81.9854C613.696 81.9854 613.535 81.9899 613.361 81.999V84.4463ZM618.994 81.0967C618.99 82.0264 619.215 82.7555 619.671 83.2842C620.127 83.8128 620.662 84.0771 621.277 84.0771C621.688 84.0771 622.043 83.9655 622.344 83.7422C622.649 83.5143 622.904 83.127 623.109 82.5801L623.321 82.7168C623.226 83.3411 622.948 83.9108 622.487 84.4258C622.027 84.9362 621.451 85.1914 620.758 85.1914C620.006 85.1914 619.361 84.8997 618.823 84.3164C618.29 83.7285 618.023 82.9401 618.023 81.9512C618.023 80.8802 618.297 80.0462 618.844 79.4492C619.395 78.8477 620.086 78.5469 620.915 78.5469C621.617 78.5469 622.193 78.7793 622.645 79.2441C623.096 79.7044 623.321 80.3219 623.321 81.0967H618.994ZM618.994 80.7002H621.893C621.87 80.2992 621.822 80.0166 621.749 79.8525C621.635 79.5973 621.464 79.3968 621.236 79.251C621.013 79.1051 620.778 79.0322 620.532 79.0322C620.154 79.0322 619.814 79.1803 619.514 79.4766C619.217 79.7682 619.044 80.1761 618.994 80.7002ZM623.711 79.3604L625.639 78.5811H625.898V80.0439C626.222 79.4925 626.546 79.1074 626.869 78.8887C627.197 78.6654 627.541 78.5537 627.901 78.5537C628.53 78.5537 629.054 78.7998 629.474 79.292C629.989 79.8936 630.246 80.6774 630.246 81.6436C630.246 82.7236 629.936 83.6169 629.316 84.3232C628.806 84.902 628.163 85.1914 627.389 85.1914C627.051 85.1914 626.76 85.1436 626.514 85.0479C626.331 84.9795 626.126 84.8428 625.898 84.6377V86.5449C625.898 86.9733 625.924 87.2445 625.974 87.3584C626.028 87.4769 626.119 87.5703 626.247 87.6387C626.379 87.707 626.616 87.7412 626.958 87.7412V87.9941H623.677V87.7412H623.848C624.098 87.7458 624.312 87.6979 624.49 87.5977C624.577 87.5475 624.643 87.4655 624.688 87.3516C624.739 87.2422 624.764 86.9596 624.764 86.5039V80.584C624.764 80.1784 624.745 79.9209 624.709 79.8115C624.673 79.7021 624.613 79.6201 624.531 79.5654C624.454 79.5107 624.347 79.4834 624.21 79.4834C624.101 79.4834 623.962 79.5153 623.793 79.5791L623.711 79.3604ZM625.898 80.4473V82.7852C625.898 83.291 625.919 83.6237 625.96 83.7832C626.024 84.0475 626.179 84.2799 626.425 84.4805C626.675 84.681 626.99 84.7812 627.368 84.7812C627.824 84.7812 628.193 84.6035 628.476 84.248C628.845 83.7832 629.029 83.1292 629.029 82.2861C629.029 81.3291 628.82 80.5931 628.4 80.0781C628.109 79.7227 627.762 79.5449 627.361 79.5449C627.143 79.5449 626.926 79.5996 626.712 79.709C626.548 79.791 626.277 80.0371 625.898 80.4473ZM637.444 85H635.599C635.024 84.166 634.505 83.3115 634.04 82.4365C633.931 82.236 633.83 82.0879 633.739 81.9922C633.653 81.8919 633.532 81.8418 633.377 81.8418C633.322 81.8418 633.236 81.8464 633.117 81.8555V83.5303C633.117 83.9814 633.142 84.2708 633.192 84.3984C633.247 84.5215 633.343 84.6104 633.479 84.665C633.616 84.7197 633.846 84.7471 634.17 84.7471V85H631.039V84.7471C631.445 84.7471 631.704 84.6742 631.818 84.5283C631.932 84.3779 631.989 84.0452 631.989 83.5303V80.208C631.989 79.7204 631.964 79.4333 631.914 79.3467C631.864 79.2555 631.786 79.1758 631.682 79.1074C631.577 79.0345 631.363 78.998 631.039 78.998V78.7383H634.17V78.998C633.792 78.998 633.557 79.0254 633.466 79.0801C633.379 79.1348 633.299 79.2031 633.227 79.2852C633.154 79.3626 633.117 79.6702 633.117 80.208V81.4385C633.222 81.4476 633.293 81.4521 633.329 81.4521C633.607 81.4521 633.867 81.3747 634.108 81.2197C634.354 81.0602 634.573 80.7253 634.765 80.2148C634.942 79.7318 635.088 79.4059 635.202 79.2373C635.321 79.0687 635.482 78.932 635.688 78.8271C635.897 78.7178 636.116 78.6631 636.344 78.6631C636.59 78.6631 636.786 78.7223 636.932 78.8408C637.077 78.9593 637.15 79.1143 637.15 79.3057C637.15 79.4652 637.098 79.6019 636.993 79.7158C636.888 79.8252 636.743 79.8799 636.556 79.8799C636.455 79.8799 636.33 79.8525 636.18 79.7979C635.988 79.7295 635.842 79.6953 635.742 79.6953C635.533 79.6953 635.359 79.8753 635.223 80.2354C635.068 80.6501 634.954 80.9189 634.881 81.042C634.808 81.1605 634.669 81.32 634.464 81.5205C634.605 81.5615 634.758 81.6663 634.922 81.835C635.09 82.0036 635.4 82.4844 635.852 83.2773C636.212 83.9108 636.48 84.3118 636.658 84.4805C636.84 84.6491 637.103 84.738 637.444 84.7471V85ZM639.926 83.0723L642.633 79.9414C642.624 79.5905 642.558 79.3467 642.435 79.21C642.312 79.0732 642.1 79.0026 641.799 78.998V78.7383H644.711V78.998C644.406 78.998 644.201 79.0299 644.096 79.0938C643.991 79.153 643.909 79.2282 643.85 79.3193C643.79 79.4105 643.761 79.7067 643.761 80.208V83.5303C643.761 84.0133 643.786 84.3027 643.836 84.3984C643.886 84.4896 643.964 84.5716 644.068 84.6445C644.178 84.7129 644.392 84.7471 644.711 84.7471V85H641.683V84.7471C642.061 84.7471 642.314 84.6787 642.441 84.542C642.569 84.4007 642.633 84.0635 642.633 83.5303V80.584L639.926 83.7217C639.935 84.109 639.99 84.3757 640.09 84.5215C640.19 84.6673 640.407 84.7425 640.739 84.7471V85H637.848V84.7471C638.253 84.7471 638.513 84.6742 638.627 84.5283C638.741 84.3779 638.798 84.0452 638.798 83.5303V80.208C638.798 79.7204 638.773 79.4333 638.723 79.3467C638.673 79.2555 638.595 79.1758 638.49 79.1074C638.385 79.0345 638.171 78.998 637.848 78.998V78.7383H640.876V78.998C640.571 78.998 640.366 79.0299 640.261 79.0938C640.156 79.153 640.074 79.2282 640.015 79.3193C639.955 79.4105 639.926 79.7067 639.926 80.208V83.0723ZM519.292 94.7383H524.815V94.998C524.506 94.998 524.298 95.0299 524.193 95.0938C524.093 95.153 524.013 95.2282 523.954 95.3193C523.895 95.4105 523.865 95.7067 523.865 96.208V99.3047C523.865 99.9564 523.92 100.357 524.029 100.508C524.143 100.654 524.405 100.733 524.815 100.747V102.736H524.556C524.537 102.363 524.444 102.037 524.275 101.759C524.111 101.481 523.881 101.285 523.585 101.171C523.289 101.057 522.851 101 522.272 101H520.659C520.158 101 519.766 101.043 519.483 101.13C519.201 101.221 518.964 101.408 518.772 101.69C518.586 101.973 518.472 102.322 518.431 102.736H518.178V100.747C518.551 100.733 518.891 100.585 519.196 100.303C519.502 100.02 519.771 99.4665 520.003 98.6416C520.235 97.8167 520.352 97.0055 520.352 96.208C520.352 95.4242 519.998 95.0208 519.292 94.998V94.7383ZM520.803 95.1826V95.5586C520.803 97.7962 520.397 99.4619 519.586 100.556H521.91C522.329 100.556 522.571 100.521 522.635 100.453C522.699 100.38 522.73 100.118 522.73 99.667V95.1826H520.803ZM528.623 94.5537C529.571 94.5537 530.332 94.9137 530.906 95.6338C531.394 96.249 531.638 96.9554 531.638 97.7529C531.638 98.3135 531.503 98.8809 531.234 99.4551C530.965 100.029 530.594 100.462 530.12 100.754C529.651 101.046 529.127 101.191 528.548 101.191C527.604 101.191 526.855 100.815 526.299 100.063C525.829 99.43 525.595 98.7191 525.595 97.9307C525.595 97.3564 525.736 96.7868 526.019 96.2217C526.306 95.652 526.682 95.2327 527.146 94.9639C527.611 94.6904 528.104 94.5537 528.623 94.5537ZM528.411 94.998C528.17 94.998 527.926 95.071 527.68 95.2168C527.438 95.3581 527.242 95.6087 527.092 95.9688C526.941 96.3288 526.866 96.7913 526.866 97.3564C526.866 98.2679 527.046 99.054 527.406 99.7148C527.771 100.376 528.249 100.706 528.842 100.706C529.284 100.706 529.648 100.524 529.936 100.159C530.223 99.7946 530.366 99.168 530.366 98.2793C530.366 97.1673 530.127 96.2923 529.648 95.6543C529.325 95.2168 528.912 94.998 528.411 94.998ZM538.234 98.6211C538.066 99.446 537.735 100.082 537.243 100.528C536.751 100.97 536.206 101.191 535.609 101.191C534.898 101.191 534.279 100.893 533.75 100.296C533.221 99.6989 532.957 98.8923 532.957 97.876C532.957 96.8916 533.249 96.0918 533.832 95.4766C534.42 94.8613 535.124 94.5537 535.944 94.5537C536.56 94.5537 537.065 94.7178 537.462 95.0459C537.858 95.3695 538.057 95.7067 538.057 96.0576C538.057 96.2308 538 96.3721 537.886 96.4814C537.776 96.5863 537.621 96.6387 537.421 96.6387C537.152 96.6387 536.949 96.5521 536.812 96.3789C536.735 96.2832 536.683 96.1009 536.655 95.832C536.632 95.5632 536.541 95.3581 536.382 95.2168C536.222 95.0801 536.001 95.0117 535.719 95.0117C535.263 95.0117 534.896 95.1803 534.618 95.5176C534.249 95.9642 534.064 96.5544 534.064 97.2881C534.064 98.0355 534.247 98.6963 534.611 99.2705C534.98 99.8402 535.477 100.125 536.102 100.125C536.548 100.125 536.949 99.9723 537.305 99.667C537.555 99.4574 537.799 99.0768 538.036 98.5254L538.234 98.6211ZM539.041 94.7383H544.455L544.729 96.4336H544.421C544.366 96.0918 544.275 95.8275 544.147 95.6406C544.02 95.4538 543.874 95.3307 543.71 95.2715C543.546 95.2122 543.266 95.1826 542.869 95.1826H542.322V99.5303C542.322 99.9951 542.35 100.291 542.404 100.419C542.464 100.542 542.557 100.624 542.685 100.665C542.812 100.706 543.104 100.733 543.56 100.747V101H540.155V100.747C540.593 100.738 540.873 100.667 540.996 100.535C541.124 100.403 541.188 100.068 541.188 99.5303V95.1826H540.627C540.235 95.1826 539.968 95.2077 539.827 95.2578C539.686 95.3034 539.549 95.4173 539.417 95.5996C539.289 95.7773 539.18 96.0553 539.089 96.4336H538.781L539.041 94.7383ZM548.133 94.5537C549.081 94.5537 549.842 94.9137 550.416 95.6338C550.904 96.249 551.147 96.9554 551.147 97.7529C551.147 98.3135 551.013 98.8809 550.744 99.4551C550.475 100.029 550.104 100.462 549.63 100.754C549.16 101.046 548.636 101.191 548.058 101.191C547.114 101.191 546.365 100.815 545.809 100.063C545.339 99.43 545.104 98.7191 545.104 97.9307C545.104 97.3564 545.246 96.7868 545.528 96.2217C545.815 95.652 546.191 95.2327 546.656 94.9639C547.121 94.6904 547.613 94.5537 548.133 94.5537ZM547.921 94.998C547.679 94.998 547.436 95.071 547.189 95.2168C546.948 95.3581 546.752 95.6087 546.602 95.9688C546.451 96.3288 546.376 96.7913 546.376 97.3564C546.376 98.2679 546.556 99.054 546.916 99.7148C547.281 100.376 547.759 100.706 548.352 100.706C548.794 100.706 549.158 100.524 549.445 100.159C549.732 99.7946 549.876 99.168 549.876 98.2793C549.876 97.1673 549.637 96.2923 549.158 95.6543C548.835 95.2168 548.422 94.998 547.921 94.998ZM556.042 97.6914C557.186 97.9284 557.758 98.4639 557.758 99.2979C557.758 99.8675 557.519 100.294 557.04 100.576C556.566 100.859 555.903 101 555.051 101H551.961V100.747C552.367 100.747 552.622 100.672 552.727 100.521C552.836 100.367 552.891 100.036 552.891 99.5303V96.208C552.891 95.7158 552.866 95.4264 552.815 95.3398C552.77 95.2533 552.695 95.1758 552.59 95.1074C552.49 95.0345 552.28 94.998 551.961 94.998V94.7383H554.846C555.402 94.7383 555.851 94.7816 556.192 94.8682C556.539 94.9548 556.821 95.1257 557.04 95.3809C557.263 95.6361 557.375 95.946 557.375 96.3105C557.375 97.0215 556.931 97.4818 556.042 97.6914ZM554.025 97.5342C554.226 97.5387 554.347 97.541 554.388 97.541C555.012 97.541 555.463 97.4225 555.741 97.1855C556.019 96.944 556.158 96.6523 556.158 96.3105C556.158 95.9141 556.017 95.627 555.734 95.4492C555.452 95.2715 555.001 95.1826 554.381 95.1826H554.025V97.5342ZM554.025 100.446C554.253 100.519 554.524 100.556 554.839 100.556C555.381 100.556 555.785 100.437 556.049 100.2C556.313 99.9632 556.445 99.6579 556.445 99.2842C556.445 98.8649 556.274 98.5436 555.933 98.3203C555.591 98.097 555.117 97.9854 554.511 97.9854C554.36 97.9854 554.199 97.9899 554.025 97.999V100.446ZM559.658 97.0967C559.654 98.0264 559.879 98.7555 560.335 99.2842C560.791 99.8128 561.326 100.077 561.941 100.077C562.352 100.077 562.707 99.9655 563.008 99.7422C563.313 99.5143 563.568 99.127 563.773 98.5801L563.985 98.7168C563.89 99.3411 563.612 99.9108 563.151 100.426C562.691 100.936 562.115 101.191 561.422 101.191C560.67 101.191 560.025 100.9 559.487 100.316C558.954 99.7285 558.688 98.9401 558.688 97.9512C558.688 96.8802 558.961 96.0462 559.508 95.4492C560.059 94.8477 560.75 94.5469 561.579 94.5469C562.281 94.5469 562.857 94.7793 563.309 95.2441C563.76 95.7044 563.985 96.3219 563.985 97.0967H559.658ZM559.658 96.7002H562.557C562.534 96.2992 562.486 96.0166 562.413 95.8525C562.299 95.5973 562.128 95.3968 561.9 95.251C561.677 95.1051 561.442 95.0322 561.196 95.0322C560.818 95.0322 560.479 95.1803 560.178 95.4766C559.882 95.7682 559.708 96.1761 559.658 96.7002ZM564.375 95.3604L566.303 94.5811H566.562V96.0439C566.886 95.4925 567.21 95.1074 567.533 94.8887C567.861 94.6654 568.205 94.5537 568.565 94.5537C569.194 94.5537 569.718 94.7998 570.138 95.292C570.653 95.8936 570.91 96.6774 570.91 97.6436C570.91 98.7236 570.6 99.6169 569.98 100.323C569.47 100.902 568.827 101.191 568.053 101.191C567.715 101.191 567.424 101.144 567.178 101.048C566.995 100.979 566.79 100.843 566.562 100.638V102.545C566.562 102.973 566.588 103.244 566.638 103.358C566.692 103.477 566.784 103.57 566.911 103.639C567.043 103.707 567.28 103.741 567.622 103.741V103.994H564.341V103.741H564.512C564.762 103.746 564.977 103.698 565.154 103.598C565.241 103.548 565.307 103.465 565.353 103.352C565.403 103.242 565.428 102.96 565.428 102.504V96.584C565.428 96.1784 565.41 95.9209 565.373 95.8115C565.337 95.7021 565.277 95.6201 565.195 95.5654C565.118 95.5107 565.011 95.4834 564.874 95.4834C564.765 95.4834 564.626 95.5153 564.457 95.5791L564.375 95.3604ZM566.562 96.4473V98.7852C566.562 99.291 566.583 99.6237 566.624 99.7832C566.688 100.048 566.843 100.28 567.089 100.48C567.34 100.681 567.654 100.781 568.032 100.781C568.488 100.781 568.857 100.604 569.14 100.248C569.509 99.7832 569.693 99.1292 569.693 98.2861C569.693 97.3291 569.484 96.5931 569.064 96.0781C568.773 95.7227 568.426 95.5449 568.025 95.5449C567.807 95.5449 567.59 95.5996 567.376 95.709C567.212 95.791 566.941 96.0371 566.562 96.4473ZM573.781 97.5342H576.488V96.208C576.488 95.8115 576.472 95.554 576.44 95.4355C576.409 95.3125 576.329 95.21 576.201 95.1279C576.078 95.0413 575.857 94.998 575.538 94.998V94.7383H578.566V94.998C578.284 94.998 578.076 95.0299 577.944 95.0938C577.817 95.1576 577.73 95.251 577.685 95.374C577.639 95.4925 577.616 95.7705 577.616 96.208V99.5303C577.616 99.9268 577.632 100.189 577.664 100.316C577.701 100.444 577.785 100.549 577.917 100.631C578.049 100.708 578.266 100.747 578.566 100.747V101H575.538V100.747C575.916 100.747 576.169 100.679 576.297 100.542C576.424 100.401 576.488 100.063 576.488 99.5303V97.9785H573.781V99.5303C573.781 99.9268 573.797 100.189 573.829 100.316C573.866 100.444 573.95 100.549 574.082 100.631C574.214 100.708 574.431 100.747 574.731 100.747V101H571.703V100.747C572.109 100.747 572.368 100.674 572.482 100.528C572.596 100.378 572.653 100.045 572.653 99.5303V96.208C572.653 95.8115 572.635 95.5495 572.599 95.4219C572.567 95.2943 572.485 95.1917 572.353 95.1143C572.22 95.0368 572.004 94.998 571.703 94.998V94.7383H574.731V94.998C574.449 94.998 574.242 95.0299 574.109 95.0938C573.982 95.1576 573.895 95.251 573.85 95.374C573.804 95.4925 573.781 95.7705 573.781 96.208V97.5342ZM582.381 94.5537C583.329 94.5537 584.09 94.9137 584.664 95.6338C585.152 96.249 585.396 96.9554 585.396 97.7529C585.396 98.3135 585.261 98.8809 584.992 99.4551C584.723 100.029 584.352 100.462 583.878 100.754C583.409 101.046 582.884 101.191 582.306 101.191C581.362 101.191 580.613 100.815 580.057 100.063C579.587 99.43 579.353 98.7191 579.353 97.9307C579.353 97.3564 579.494 96.7868 579.776 96.2217C580.063 95.652 580.439 95.2327 580.904 94.9639C581.369 94.6904 581.861 94.5537 582.381 94.5537ZM582.169 94.998C581.927 94.998 581.684 95.071 581.438 95.2168C581.196 95.3581 581 95.6087 580.85 95.9688C580.699 96.3288 580.624 96.7913 580.624 97.3564C580.624 98.2679 580.804 99.054 581.164 99.7148C581.529 100.376 582.007 100.706 582.6 100.706C583.042 100.706 583.406 100.524 583.693 100.159C583.98 99.7946 584.124 99.168 584.124 98.2793C584.124 97.1673 583.885 96.2923 583.406 95.6543C583.083 95.2168 582.67 94.998 582.169 94.998ZM591.992 98.6211C591.824 99.446 591.493 100.082 591.001 100.528C590.509 100.97 589.964 101.191 589.367 101.191C588.656 101.191 588.036 100.893 587.508 100.296C586.979 99.6989 586.715 98.8923 586.715 97.876C586.715 96.8916 587.007 96.0918 587.59 95.4766C588.178 94.8613 588.882 94.5537 589.702 94.5537C590.317 94.5537 590.823 94.7178 591.22 95.0459C591.616 95.3695 591.814 95.7067 591.814 96.0576C591.814 96.2308 591.757 96.3721 591.644 96.4814C591.534 96.5863 591.379 96.6387 591.179 96.6387C590.91 96.6387 590.707 96.5521 590.57 96.3789C590.493 96.2832 590.44 96.1009 590.413 95.832C590.39 95.5632 590.299 95.3581 590.14 95.2168C589.98 95.0801 589.759 95.0117 589.477 95.0117C589.021 95.0117 588.654 95.1803 588.376 95.5176C588.007 95.9642 587.822 96.5544 587.822 97.2881C587.822 98.0355 588.005 98.6963 588.369 99.2705C588.738 99.8402 589.235 100.125 589.859 100.125C590.306 100.125 590.707 99.9723 591.062 99.667C591.313 99.4574 591.557 99.0768 591.794 98.5254L591.992 98.6211ZM592.799 94.7383H598.213L598.486 96.4336H598.179C598.124 96.0918 598.033 95.8275 597.905 95.6406C597.778 95.4538 597.632 95.3307 597.468 95.2715C597.304 95.2122 597.023 95.1826 596.627 95.1826H596.08V99.5303C596.08 99.9951 596.107 100.291 596.162 100.419C596.221 100.542 596.315 100.624 596.442 100.665C596.57 100.706 596.862 100.733 597.317 100.747V101H593.913V100.747C594.351 100.738 594.631 100.667 594.754 100.535C594.882 100.403 594.945 100.068 594.945 99.5303V95.1826H594.385C593.993 95.1826 593.726 95.2077 593.585 95.2578C593.444 95.3034 593.307 95.4173 593.175 95.5996C593.047 95.7773 592.938 96.0553 592.847 96.4336H592.539L592.799 94.7383ZM600.975 99.0723L603.682 95.9414C603.673 95.5905 603.606 95.3467 603.483 95.21C603.36 95.0732 603.148 95.0026 602.848 94.998V94.7383H605.76V94.998C605.454 94.998 605.249 95.0299 605.145 95.0938C605.04 95.153 604.958 95.2282 604.898 95.3193C604.839 95.4105 604.81 95.7067 604.81 96.208V99.5303C604.81 100.013 604.835 100.303 604.885 100.398C604.935 100.49 605.012 100.572 605.117 100.645C605.227 100.713 605.441 100.747 605.76 100.747V101H602.731V100.747C603.11 100.747 603.363 100.679 603.49 100.542C603.618 100.401 603.682 100.063 603.682 99.5303V96.584L600.975 99.7217C600.984 100.109 601.038 100.376 601.139 100.521C601.239 100.667 601.455 100.743 601.788 100.747V101H598.896V100.747C599.302 100.747 599.562 100.674 599.676 100.528C599.79 100.378 599.847 100.045 599.847 99.5303V96.208C599.847 95.7204 599.822 95.4333 599.771 95.3467C599.721 95.2555 599.644 95.1758 599.539 95.1074C599.434 95.0345 599.22 94.998 598.896 94.998V94.7383H601.925V94.998C601.619 94.998 601.414 95.0299 601.31 95.0938C601.205 95.153 601.123 95.2282 601.063 95.3193C601.004 95.4105 600.975 95.7067 600.975 96.208V99.0723ZM519.292 110.738H524.815V110.998C524.506 110.998 524.298 111.03 524.193 111.094C524.093 111.153 524.013 111.228 523.954 111.319C523.895 111.41 523.865 111.707 523.865 112.208V115.305C523.865 115.956 523.92 116.357 524.029 116.508C524.143 116.654 524.405 116.733 524.815 116.747V118.736H524.556C524.537 118.363 524.444 118.037 524.275 117.759C524.111 117.481 523.881 117.285 523.585 117.171C523.289 117.057 522.851 117 522.272 117H520.659C520.158 117 519.766 117.043 519.483 117.13C519.201 117.221 518.964 117.408 518.772 117.69C518.586 117.973 518.472 118.322 518.431 118.736H518.178V116.747C518.551 116.733 518.891 116.585 519.196 116.303C519.502 116.02 519.771 115.466 520.003 114.642C520.235 113.817 520.352 113.006 520.352 112.208C520.352 111.424 519.998 111.021 519.292 110.998V110.738ZM520.803 111.183V111.559C520.803 113.796 520.397 115.462 519.586 116.556H521.91C522.329 116.556 522.571 116.521 522.635 116.453C522.699 116.38 522.73 116.118 522.73 115.667V111.183H520.803ZM528.623 110.554C529.571 110.554 530.332 110.914 530.906 111.634C531.394 112.249 531.638 112.955 531.638 113.753C531.638 114.313 531.503 114.881 531.234 115.455C530.965 116.029 530.594 116.462 530.12 116.754C529.651 117.046 529.127 117.191 528.548 117.191C527.604 117.191 526.855 116.815 526.299 116.063C525.829 115.43 525.595 114.719 525.595 113.931C525.595 113.356 525.736 112.787 526.019 112.222C526.306 111.652 526.682 111.233 527.146 110.964C527.611 110.69 528.104 110.554 528.623 110.554ZM528.411 110.998C528.17 110.998 527.926 111.071 527.68 111.217C527.438 111.358 527.242 111.609 527.092 111.969C526.941 112.329 526.866 112.791 526.866 113.356C526.866 114.268 527.046 115.054 527.406 115.715C527.771 116.376 528.249 116.706 528.842 116.706C529.284 116.706 529.648 116.524 529.936 116.159C530.223 115.795 530.366 115.168 530.366 114.279C530.366 113.167 530.127 112.292 529.648 111.654C529.325 111.217 528.912 110.998 528.411 110.998ZM538.843 117H536.997C536.423 116.166 535.903 115.312 535.438 114.437C535.329 114.236 535.229 114.088 535.138 113.992C535.051 113.892 534.93 113.842 534.775 113.842C534.721 113.842 534.634 113.846 534.516 113.855V115.53C534.516 115.981 534.541 116.271 534.591 116.398C534.646 116.521 534.741 116.61 534.878 116.665C535.015 116.72 535.245 116.747 535.568 116.747V117H532.438V116.747C532.843 116.747 533.103 116.674 533.217 116.528C533.331 116.378 533.388 116.045 533.388 115.53V112.208C533.388 111.72 533.363 111.433 533.312 111.347C533.262 111.256 533.185 111.176 533.08 111.107C532.975 111.035 532.761 110.998 532.438 110.998V110.738H535.568V110.998C535.19 110.998 534.955 111.025 534.864 111.08C534.778 111.135 534.698 111.203 534.625 111.285C534.552 111.363 534.516 111.67 534.516 112.208V113.438C534.62 113.448 534.691 113.452 534.728 113.452C535.006 113.452 535.265 113.375 535.507 113.22C535.753 113.06 535.972 112.725 536.163 112.215C536.341 111.732 536.487 111.406 536.601 111.237C536.719 111.069 536.881 110.932 537.086 110.827C537.296 110.718 537.514 110.663 537.742 110.663C537.988 110.663 538.184 110.722 538.33 110.841C538.476 110.959 538.549 111.114 538.549 111.306C538.549 111.465 538.496 111.602 538.392 111.716C538.287 111.825 538.141 111.88 537.954 111.88C537.854 111.88 537.729 111.853 537.578 111.798C537.387 111.729 537.241 111.695 537.141 111.695C536.931 111.695 536.758 111.875 536.621 112.235C536.466 112.65 536.352 112.919 536.279 113.042C536.206 113.16 536.067 113.32 535.862 113.521C536.004 113.562 536.156 113.666 536.32 113.835C536.489 114.004 536.799 114.484 537.25 115.277C537.61 115.911 537.879 116.312 538.057 116.48C538.239 116.649 538.501 116.738 538.843 116.747V117ZM538.809 110.738H541.728V110.991H541.584C541.379 110.991 541.224 111.037 541.119 111.128C541.019 111.215 540.969 111.324 540.969 111.456C540.969 111.634 541.044 111.88 541.194 112.194L542.719 115.353L544.12 111.894C544.198 111.707 544.236 111.522 544.236 111.34C544.236 111.258 544.22 111.196 544.188 111.155C544.152 111.105 544.095 111.066 544.018 111.039C543.94 111.007 543.803 110.991 543.607 110.991V110.738H545.645V110.991C545.476 111.009 545.346 111.046 545.255 111.101C545.164 111.155 545.063 111.258 544.954 111.408C544.913 111.472 544.836 111.647 544.722 111.935L542.172 118.183C541.926 118.789 541.602 119.247 541.201 119.557C540.805 119.867 540.422 120.021 540.053 120.021C539.784 120.021 539.563 119.944 539.39 119.789C539.216 119.634 539.13 119.456 539.13 119.256C539.13 119.064 539.191 118.91 539.314 118.791C539.442 118.677 539.615 118.62 539.834 118.62C539.984 118.62 540.189 118.67 540.449 118.771C540.632 118.839 540.745 118.873 540.791 118.873C540.928 118.873 541.076 118.802 541.235 118.661C541.399 118.52 541.563 118.246 541.728 117.841L542.172 116.754L539.923 112.03C539.854 111.889 539.745 111.714 539.595 111.504C539.481 111.344 539.387 111.237 539.314 111.183C539.21 111.11 539.041 111.046 538.809 110.991V110.738ZM550.02 115.366L551.975 110.738H554.087V110.998C553.777 110.998 553.57 111.03 553.465 111.094C553.365 111.153 553.285 111.228 553.226 111.319C553.166 111.41 553.137 111.707 553.137 112.208V115.53C553.137 115.963 553.157 116.243 553.198 116.371C553.244 116.494 553.333 116.588 553.465 116.651C553.602 116.715 553.809 116.747 554.087 116.747V117H551.059V116.747C551.432 116.747 551.683 116.679 551.811 116.542C551.938 116.401 552.002 116.063 552.002 115.53V111.764L549.787 117H549.548L547.292 111.764V115.53C547.292 115.963 547.315 116.243 547.36 116.371C547.406 116.494 547.495 116.588 547.627 116.651C547.759 116.715 547.964 116.747 548.242 116.747V117H545.85V116.747C546.255 116.747 546.515 116.674 546.629 116.528C546.743 116.378 546.8 116.045 546.8 115.53V112.208C546.8 111.72 546.775 111.433 546.725 111.347C546.674 111.256 546.597 111.176 546.492 111.107C546.387 111.035 546.173 110.998 545.85 110.998V110.738H548.051L550.02 115.366ZM555.885 113.097C555.88 114.026 556.106 114.756 556.562 115.284C557.017 115.813 557.553 116.077 558.168 116.077C558.578 116.077 558.934 115.965 559.234 115.742C559.54 115.514 559.795 115.127 560 114.58L560.212 114.717C560.116 115.341 559.838 115.911 559.378 116.426C558.918 116.936 558.341 117.191 557.648 117.191C556.896 117.191 556.252 116.9 555.714 116.316C555.181 115.729 554.914 114.94 554.914 113.951C554.914 112.88 555.188 112.046 555.734 111.449C556.286 110.848 556.976 110.547 557.806 110.547C558.507 110.547 559.084 110.779 559.535 111.244C559.986 111.704 560.212 112.322 560.212 113.097H555.885ZM555.885 112.7H558.783C558.76 112.299 558.713 112.017 558.64 111.853C558.526 111.597 558.355 111.397 558.127 111.251C557.904 111.105 557.669 111.032 557.423 111.032C557.045 111.032 556.705 111.18 556.404 111.477C556.108 111.768 555.935 112.176 555.885 112.7ZM563.008 113.534H565.715V112.208C565.715 111.812 565.699 111.554 565.667 111.436C565.635 111.312 565.555 111.21 565.428 111.128C565.305 111.041 565.084 110.998 564.765 110.998V110.738H567.793V110.998C567.51 110.998 567.303 111.03 567.171 111.094C567.043 111.158 566.957 111.251 566.911 111.374C566.866 111.493 566.843 111.771 566.843 112.208V115.53C566.843 115.927 566.859 116.189 566.891 116.316C566.927 116.444 567.011 116.549 567.144 116.631C567.276 116.708 567.492 116.747 567.793 116.747V117H564.765V116.747C565.143 116.747 565.396 116.679 565.523 116.542C565.651 116.401 565.715 116.063 565.715 115.53V113.979H563.008V115.53C563.008 115.927 563.024 116.189 563.056 116.316C563.092 116.444 563.176 116.549 563.309 116.631C563.441 116.708 563.657 116.747 563.958 116.747V117H560.93V116.747C561.335 116.747 561.595 116.674 561.709 116.528C561.823 116.378 561.88 116.045 561.88 115.53V112.208C561.88 111.812 561.862 111.549 561.825 111.422C561.793 111.294 561.711 111.192 561.579 111.114C561.447 111.037 561.23 110.998 560.93 110.998V110.738H563.958V110.998C563.675 110.998 563.468 111.03 563.336 111.094C563.208 111.158 563.122 111.251 563.076 111.374C563.031 111.493 563.008 111.771 563.008 112.208V113.534ZM568.449 110.738H573.863L574.137 112.434H573.829C573.774 112.092 573.683 111.827 573.556 111.641C573.428 111.454 573.282 111.331 573.118 111.271C572.954 111.212 572.674 111.183 572.277 111.183H571.73V115.53C571.73 115.995 571.758 116.291 571.812 116.419C571.872 116.542 571.965 116.624 572.093 116.665C572.22 116.706 572.512 116.733 572.968 116.747V117H569.563V116.747C570.001 116.738 570.281 116.667 570.404 116.535C570.532 116.403 570.596 116.068 570.596 115.53V111.183H570.035C569.643 111.183 569.377 111.208 569.235 111.258C569.094 111.303 568.957 111.417 568.825 111.6C568.698 111.777 568.588 112.055 568.497 112.434H568.189L568.449 110.738ZM578.396 116.098C577.753 116.594 577.35 116.882 577.186 116.959C576.939 117.073 576.677 117.13 576.399 117.13C575.966 117.13 575.609 116.982 575.326 116.686C575.048 116.389 574.909 116 574.909 115.517C574.909 115.211 574.978 114.947 575.114 114.724C575.301 114.414 575.625 114.122 576.085 113.849C576.55 113.575 577.32 113.243 578.396 112.851V112.604C578.396 111.98 578.295 111.552 578.095 111.319C577.899 111.087 577.612 110.971 577.233 110.971C576.946 110.971 576.718 111.048 576.55 111.203C576.377 111.358 576.29 111.536 576.29 111.736L576.304 112.133C576.304 112.342 576.249 112.504 576.14 112.618C576.035 112.732 575.896 112.789 575.723 112.789C575.554 112.789 575.415 112.73 575.306 112.611C575.201 112.493 575.148 112.331 575.148 112.126C575.148 111.734 575.349 111.374 575.75 111.046C576.151 110.718 576.714 110.554 577.438 110.554C577.994 110.554 578.45 110.647 578.806 110.834C579.075 110.975 579.273 111.196 579.4 111.497C579.482 111.693 579.523 112.094 579.523 112.7V114.826C579.523 115.423 579.535 115.79 579.558 115.927C579.58 116.059 579.617 116.148 579.667 116.193C579.722 116.239 579.783 116.262 579.852 116.262C579.924 116.262 579.988 116.246 580.043 116.214C580.139 116.155 580.323 115.988 580.597 115.715V116.098C580.086 116.781 579.599 117.123 579.134 117.123C578.91 117.123 578.733 117.046 578.601 116.891C578.468 116.736 578.4 116.471 578.396 116.098ZM578.396 115.653V113.268C577.707 113.541 577.263 113.735 577.062 113.849C576.702 114.049 576.445 114.259 576.29 114.478C576.135 114.696 576.058 114.936 576.058 115.195C576.058 115.523 576.156 115.797 576.352 116.016C576.548 116.23 576.773 116.337 577.028 116.337C577.375 116.337 577.83 116.109 578.396 115.653Z" fill="#24334B"/>
<g clip-path="url(#clip0_1812_8434)">
<path d="M776 20H676V120H776V20Z" fill="white"/>
<path d="M680 20.5996H676.6V23.9996H680V20.5996Z" fill="#24334B"/>
<path d="M683.4 20.5996H680V23.9996H683.4V20.5996Z" fill="#24334B"/>
<path d="M686.8 20.5996H683.4V23.9996H686.8V20.5996Z" fill="#24334B"/>
<path d="M690.201 20.5996H686.801V23.9996H690.201V20.5996Z" fill="#24334B"/>
<path d="M693.599 20.5996H690.199V23.9996H693.599V20.5996Z" fill="#24334B"/>
<path d="M697 20.5996H693.6V23.9996H697V20.5996Z" fill="#24334B"/>
<path d="M700.4 20.5996H697V23.9996H700.4V20.5996Z" fill="#24334B"/>
<path d="M714 20.5996H710.6V23.9996H714V20.5996Z" fill="#24334B"/>
<path d="M717.4 20.5996H714V23.9996H717.4V20.5996Z" fill="#24334B"/>
<path d="M727.599 20.5996H724.199V23.9996H727.599V20.5996Z" fill="#24334B"/>
<path d="M741.201 20.5996H737.801V23.9996H741.201V20.5996Z" fill="#24334B"/>
<path d="M744.599 20.5996H741.199V23.9996H744.599V20.5996Z" fill="#24334B"/>
<path d="M754.8 20.5996H751.4V23.9996H754.8V20.5996Z" fill="#24334B"/>
<path d="M758.201 20.5996H754.801V23.9996H758.201V20.5996Z" fill="#24334B"/>
<path d="M761.599 20.5996H758.199V23.9996H761.599V20.5996Z" fill="#24334B"/>
<path d="M765 20.5996H761.6V23.9996H765V20.5996Z" fill="#24334B"/>
<path d="M768.4 20.5996H765V23.9996H768.4V20.5996Z" fill="#24334B"/>
<path d="M771.8 20.5996H768.4V23.9996H771.8V20.5996Z" fill="#24334B"/>
<path d="M775.201 20.5996H771.801V23.9996H775.201V20.5996Z" fill="#24334B"/>
<path d="M680 24H676.6V27.4H680V24Z" fill="#24334B"/>
<path d="M700.4 24H697V27.4H700.4V24Z" fill="#24334B"/>
<path d="M707.201 24H703.801V27.4H707.201V24Z" fill="#24334B"/>
<path d="M717.4 24H714V27.4H717.4V24Z" fill="#24334B"/>
<path d="M720.8 24H717.4V27.4H720.8V24Z" fill="#24334B"/>
<path d="M724.201 24H720.801V27.4H724.201V24Z" fill="#24334B"/>
<path d="M737.8 24H734.4V27.4H737.8V24Z" fill="#24334B"/>
<path d="M748 24H744.6V27.4H748V24Z" fill="#24334B"/>
<path d="M754.8 24H751.4V27.4H754.8V24Z" fill="#24334B"/>
<path d="M775.201 24H771.801V27.4H775.201V24Z" fill="#24334B"/>
<path d="M680 27.4004H676.6V30.8004H680V27.4004Z" fill="#24334B"/>
<path d="M686.8 27.4004H683.4V30.8004H686.8V27.4004Z" fill="#24334B"/>
<path d="M690.201 27.4004H686.801V30.8004H690.201V27.4004Z" fill="#24334B"/>
<path d="M693.599 27.4004H690.199V30.8004H693.599V27.4004Z" fill="#24334B"/>
<path d="M700.4 27.4004H697V30.8004H700.4V27.4004Z" fill="#24334B"/>
<path d="M714 27.4004H710.6V30.8004H714V27.4004Z" fill="#24334B"/>
<path d="M720.8 27.4004H717.4V30.8004H720.8V27.4004Z" fill="#24334B"/>
<path d="M724.201 27.4004H720.801V30.8004H724.201V27.4004Z" fill="#24334B"/>
<path d="M744.599 27.4004H741.199V30.8004H744.599V27.4004Z" fill="#24334B"/>
<path d="M748 27.4004H744.6V30.8004H748V27.4004Z" fill="#24334B"/>
<path d="M754.8 27.4004H751.4V30.8004H754.8V27.4004Z" fill="#24334B"/>
<path d="M761.599 27.4004H758.199V30.8004H761.599V27.4004Z" fill="#24334B"/>
<path d="M765 27.4004H761.6V30.8004H765V27.4004Z" fill="#24334B"/>
<path d="M768.4 27.4004H765V30.8004H768.4V27.4004Z" fill="#24334B"/>
<path d="M775.201 27.4004H771.801V30.8004H775.201V27.4004Z" fill="#24334B"/>
<path d="M680 30.8008H676.6V34.2008H680V30.8008Z" fill="#24334B"/>
<path d="M686.8 30.8008H683.4V34.2008H686.8V30.8008Z" fill="#24334B"/>
<path d="M690.201 30.8008H686.801V34.2008H690.201V30.8008Z" fill="#24334B"/>
<path d="M693.599 30.8008H690.199V34.2008H693.599V30.8008Z" fill="#24334B"/>
<path d="M700.4 30.8008H697V34.2008H700.4V30.8008Z" fill="#24334B"/>
<path d="M714 30.8008H710.6V34.2008H714V30.8008Z" fill="#24334B"/>
<path d="M717.4 30.8008H714V34.2008H717.4V30.8008Z" fill="#24334B"/>
<path d="M720.8 30.8008H717.4V34.2008H720.8V30.8008Z" fill="#24334B"/>
<path d="M731 30.8008H727.6V34.2008H731V30.8008Z" fill="#24334B"/>
<path d="M734.4 30.8008H731V34.2008H734.4V30.8008Z" fill="#24334B"/>
<path d="M741.201 30.8008H737.801V34.2008H741.201V30.8008Z" fill="#24334B"/>
<path d="M744.599 30.8008H741.199V34.2008H744.599V30.8008Z" fill="#24334B"/>
<path d="M748 30.8008H744.6V34.2008H748V30.8008Z" fill="#24334B"/>
<path d="M754.8 30.8008H751.4V34.2008H754.8V30.8008Z" fill="#24334B"/>
<path d="M761.599 30.8008H758.199V34.2008H761.599V30.8008Z" fill="#24334B"/>
<path d="M765 30.8008H761.6V34.2008H765V30.8008Z" fill="#24334B"/>
<path d="M768.4 30.8008H765V34.2008H768.4V30.8008Z" fill="#24334B"/>
<path d="M775.201 30.8008H771.801V34.2008H775.201V30.8008Z" fill="#24334B"/>
<path d="M680 34.1992H676.6V37.5992H680V34.1992Z" fill="#24334B"/>
<path d="M686.8 34.1992H683.4V37.5992H686.8V34.1992Z" fill="#24334B"/>
<path d="M690.201 34.1992H686.801V37.5992H690.201V34.1992Z" fill="#24334B"/>
<path d="M693.599 34.1992H690.199V37.5992H693.599V34.1992Z" fill="#24334B"/>
<path d="M700.4 34.1992H697V37.5992H700.4V34.1992Z" fill="#24334B"/>
<path d="M714 34.1992H710.6V37.5992H714V34.1992Z" fill="#24334B"/>
<path d="M724.201 34.1992H720.801V37.5992H724.201V34.1992Z" fill="#24334B"/>
<path d="M727.599 34.1992H724.199V37.5992H727.599V34.1992Z" fill="#24334B"/>
<path d="M731 34.1992H727.6V37.5992H731V34.1992Z" fill="#24334B"/>
<path d="M748 34.1992H744.6V37.5992H748V34.1992Z" fill="#24334B"/>
<path d="M754.8 34.1992H751.4V37.5992H754.8V34.1992Z" fill="#24334B"/>
<path d="M761.599 34.1992H758.199V37.5992H761.599V34.1992Z" fill="#24334B"/>
<path d="M765 34.1992H761.6V37.5992H765V34.1992Z" fill="#24334B"/>
<path d="M768.4 34.1992H765V37.5992H768.4V34.1992Z" fill="#24334B"/>
<path d="M775.201 34.1992H771.801V37.5992H775.201V34.1992Z" fill="#24334B"/>
<path d="M680 37.5996H676.6V40.9996H680V37.5996Z" fill="#24334B"/>
<path d="M700.4 37.5996H697V40.9996H700.4V37.5996Z" fill="#24334B"/>
<path d="M707.201 37.5996H703.801V40.9996H707.201V37.5996Z" fill="#24334B"/>
<path d="M710.599 37.5996H707.199V40.9996H710.599V37.5996Z" fill="#24334B"/>
<path d="M717.4 37.5996H714V40.9996H717.4V37.5996Z" fill="#24334B"/>
<path d="M720.8 37.5996H717.4V40.9996H720.8V37.5996Z" fill="#24334B"/>
<path d="M724.201 37.5996H720.801V40.9996H724.201V37.5996Z" fill="#24334B"/>
<path d="M741.201 37.5996H737.801V40.9996H741.201V37.5996Z" fill="#24334B"/>
<path d="M744.599 37.5996H741.199V40.9996H744.599V37.5996Z" fill="#24334B"/>
<path d="M748 37.5996H744.6V40.9996H748V37.5996Z" fill="#24334B"/>
<path d="M754.8 37.5996H751.4V40.9996H754.8V37.5996Z" fill="#24334B"/>
<path d="M775.201 37.5996H771.801V40.9996H775.201V37.5996Z" fill="#24334B"/>
<path d="M680 41H676.6V44.4H680V41Z" fill="#24334B"/>
<path d="M683.4 41H680V44.4H683.4V41Z" fill="#24334B"/>
<path d="M686.8 41H683.4V44.4H686.8V41Z" fill="#24334B"/>
<path d="M690.201 41H686.801V44.4H690.201V41Z" fill="#24334B"/>
<path d="M693.599 41H690.199V44.4H693.599V41Z" fill="#24334B"/>
<path d="M697 41H693.6V44.4H697V41Z" fill="#24334B"/>
<path d="M700.4 41H697V44.4H700.4V41Z" fill="#24334B"/>
<path d="M707.201 41H703.801V44.4H707.201V41Z" fill="#24334B"/>
<path d="M714 41H710.6V44.4H714V41Z" fill="#24334B"/>
<path d="M720.8 41H717.4V44.4H720.8V41Z" fill="#24334B"/>
<path d="M727.599 41H724.199V44.4H727.599V41Z" fill="#24334B"/>
<path d="M734.4 41H731V44.4H734.4V41Z" fill="#24334B"/>
<path d="M741.201 41H737.801V44.4H741.201V41Z" fill="#24334B"/>
<path d="M748 41H744.6V44.4H748V41Z" fill="#24334B"/>
<path d="M754.8 41H751.4V44.4H754.8V41Z" fill="#24334B"/>
<path d="M758.201 41H754.801V44.4H758.201V41Z" fill="#24334B"/>
<path d="M761.599 41H758.199V44.4H761.599V41Z" fill="#24334B"/>
<path d="M765 41H761.6V44.4H765V41Z" fill="#24334B"/>
<path d="M768.4 41H765V44.4H768.4V41Z" fill="#24334B"/>
<path d="M771.8 41H768.4V44.4H771.8V41Z" fill="#24334B"/>
<path d="M775.201 41H771.801V44.4H775.201V41Z" fill="#24334B"/>
<path d="M707.201 44.4004H703.801V47.8004H707.201V44.4004Z" fill="#24334B"/>
<path d="M717.4 44.4004H714V47.8004H717.4V44.4004Z" fill="#24334B"/>
<path d="M720.8 44.4004H717.4V47.8004H720.8V44.4004Z" fill="#24334B"/>
<path d="M724.201 44.4004H720.801V47.8004H724.201V44.4004Z" fill="#24334B"/>
<path d="M731 44.4004H727.6V47.8004H731V44.4004Z" fill="#24334B"/>
<path d="M737.8 44.4004H734.4V47.8004H737.8V44.4004Z" fill="#24334B"/>
<path d="M741.201 44.4004H737.801V47.8004H741.201V44.4004Z" fill="#24334B"/>
<path d="M744.599 44.4004H741.199V47.8004H744.599V44.4004Z" fill="#24334B"/>
<path d="M748 44.4004H744.6V47.8004H748V44.4004Z" fill="#24334B"/>
<path d="M693.599 47.8008H690.199V51.2008H693.599V47.8008Z" fill="#24334B"/>
<path d="M697 47.8008H693.6V51.2008H697V47.8008Z" fill="#24334B"/>
<path d="M700.4 47.8008H697V51.2008H700.4V47.8008Z" fill="#24334B"/>
<path d="M703.8 47.8008H700.4V51.2008H703.8V47.8008Z" fill="#24334B"/>
<path d="M710.599 47.8008H707.199V51.2008H710.599V47.8008Z" fill="#24334B"/>
<path d="M717.4 47.8008H714V51.2008H717.4V47.8008Z" fill="#24334B"/>
<path d="M741.201 47.8008H737.801V51.2008H741.201V47.8008Z" fill="#24334B"/>
<path d="M744.599 47.8008H741.199V51.2008H744.599V47.8008Z" fill="#24334B"/>
<path d="M748 47.8008H744.6V51.2008H748V47.8008Z" fill="#24334B"/>
<path d="M754.8 47.8008H751.4V51.2008H754.8V47.8008Z" fill="#24334B"/>
<path d="M758.201 47.8008H754.801V51.2008H758.201V47.8008Z" fill="#24334B"/>
<path d="M771.8 47.8008H768.4V51.2008H771.8V47.8008Z" fill="#24334B"/>
<path d="M683.4 51.1992H680V54.5992H683.4V51.1992Z" fill="#24334B"/>
<path d="M686.8 51.1992H683.4V54.5992H686.8V51.1992Z" fill="#24334B"/>
<path d="M690.201 51.1992H686.801V54.5992H690.201V51.1992Z" fill="#24334B"/>
<path d="M693.599 51.1992H690.199V54.5992H693.599V51.1992Z" fill="#24334B"/>
<path d="M720.8 51.1992H717.4V54.5992H720.8V51.1992Z" fill="#24334B"/>
<path d="M731 51.1992H727.6V54.5992H731V51.1992Z" fill="#24334B"/>
<path d="M744.599 51.1992H741.199V54.5992H744.599V51.1992Z" fill="#24334B"/>
<path d="M748 51.1992H744.6V54.5992H748V51.1992Z" fill="#24334B"/>
<path d="M765 51.1992H761.6V54.5992H765V51.1992Z" fill="#24334B"/>
<path d="M768.4 51.1992H765V54.5992H768.4V51.1992Z" fill="#24334B"/>
<path d="M680 54.5996H676.6V57.9996H680V54.5996Z" fill="#24334B"/>
<path d="M683.4 54.5996H680V57.9996H683.4V54.5996Z" fill="#24334B"/>
<path d="M686.8 54.5996H683.4V57.9996H686.8V54.5996Z" fill="#24334B"/>
<path d="M690.201 54.5996H686.801V57.9996H690.201V54.5996Z" fill="#24334B"/>
<path d="M700.4 54.5996H697V57.9996H700.4V54.5996Z" fill="#24334B"/>
<path d="M707.201 54.5996H703.801V57.9996H707.201V54.5996Z" fill="#24334B"/>
<path d="M710.599 54.5996H707.199V57.9996H710.599V54.5996Z" fill="#24334B"/>
<path d="M714 54.5996H710.6V57.9996H714V54.5996Z" fill="#24334B"/>
<path d="M717.4 54.5996H714V57.9996H717.4V54.5996Z" fill="#24334B"/>
<path d="M724.201 54.5996H720.801V57.9996H724.201V54.5996Z" fill="#24334B"/>
<path d="M741.201 54.5996H737.801V57.9996H741.201V54.5996Z" fill="#24334B"/>
<path d="M751.4 54.5996H748V57.9996H751.4V54.5996Z" fill="#24334B"/>
<path d="M754.8 54.5996H751.4V57.9996H754.8V54.5996Z" fill="#24334B"/>
<path d="M758.201 54.5996H754.801V57.9996H758.201V54.5996Z" fill="#24334B"/>
<path d="M761.599 54.5996H758.199V57.9996H761.599V54.5996Z" fill="#24334B"/>
<path d="M768.4 54.5996H765V57.9996H768.4V54.5996Z" fill="#24334B"/>
<path d="M775.201 54.5996H771.801V57.9996H775.201V54.5996Z" fill="#24334B"/>
<path d="M703.8 58H700.4V61.4H703.8V58Z" fill="#24334B"/>
<path d="M707.201 58H703.801V61.4H707.201V58Z" fill="#24334B"/>
<path d="M710.599 58H707.199V61.4H710.599V58Z" fill="#24334B"/>
<path d="M717.4 58H714V61.4H717.4V58Z" fill="#24334B"/>
<path d="M720.8 58H717.4V61.4H720.8V58Z" fill="#24334B"/>
<path d="M724.201 58H720.801V61.4H724.201V58Z" fill="#24334B"/>
<path d="M727.599 58H724.199V61.4H727.599V58Z" fill="#24334B"/>
<path d="M731 58H727.6V61.4H731V58Z" fill="#24334B"/>
<path d="M737.8 58H734.4V61.4H737.8V58Z" fill="#24334B"/>
<path d="M751.4 58H748V61.4H751.4V58Z" fill="#24334B"/>
<path d="M775.201 58H771.801V61.4H775.201V58Z" fill="#24334B"/>
<path d="M680 61.4004H676.6V64.8004H680V61.4004Z" fill="#24334B"/>
<path d="M683.4 61.4004H680V64.8004H683.4V61.4004Z" fill="#24334B"/>
<path d="M686.8 61.4004H683.4V64.8004H686.8V61.4004Z" fill="#24334B"/>
<path d="M690.201 61.4004H686.801V64.8004H690.201V61.4004Z" fill="#24334B"/>
<path d="M693.599 61.4004H690.199V64.8004H693.599V61.4004Z" fill="#24334B"/>
<path d="M700.4 61.4004H697V64.8004H700.4V61.4004Z" fill="#24334B"/>
<path d="M703.8 61.4004H700.4V64.8004H703.8V61.4004Z" fill="#24334B"/>
<path d="M707.201 61.4004H703.801V64.8004H707.201V61.4004Z" fill="#24334B"/>
<path d="M710.599 61.4004H707.199V64.8004H710.599V61.4004Z" fill="#24334B"/>
<path d="M714 61.4004H710.6V64.8004H714V61.4004Z" fill="#24334B"/>
<path d="M720.8 61.4004H717.4V64.8004H720.8V61.4004Z" fill="#24334B"/>
<path d="M731 61.4004H727.6V64.8004H731V61.4004Z" fill="#24334B"/>
<path d="M737.8 61.4004H734.4V64.8004H737.8V61.4004Z" fill="#24334B"/>
<path d="M744.599 61.4004H741.199V64.8004H744.599V61.4004Z" fill="#24334B"/>
<path d="M748 61.4004H744.6V64.8004H748V61.4004Z" fill="#24334B"/>
<path d="M761.599 61.4004H758.199V64.8004H761.599V61.4004Z" fill="#24334B"/>
<path d="M765 61.4004H761.6V64.8004H765V61.4004Z" fill="#24334B"/>
<path d="M768.4 61.4004H765V64.8004H768.4V61.4004Z" fill="#24334B"/>
<path d="M683.4 64.8008H680V68.2008H683.4V64.8008Z" fill="#24334B"/>
<path d="M686.8 64.8008H683.4V68.2008H686.8V64.8008Z" fill="#24334B"/>
<path d="M703.8 64.8008H700.4V68.2008H703.8V64.8008Z" fill="#24334B"/>
<path d="M714 64.8008H710.6V68.2008H714V64.8008Z" fill="#24334B"/>
<path d="M724.201 64.8008H720.801V68.2008H724.201V64.8008Z" fill="#24334B"/>
<path d="M744.599 64.8008H741.199V68.2008H744.599V64.8008Z" fill="#24334B"/>
<path d="M748 64.8008H744.6V68.2008H748V64.8008Z" fill="#24334B"/>
<path d="M758.201 64.8008H754.801V68.2008H758.201V64.8008Z" fill="#24334B"/>
<path d="M761.599 64.8008H758.199V68.2008H761.599V64.8008Z" fill="#24334B"/>
<path d="M768.4 64.8008H765V68.2008H768.4V64.8008Z" fill="#24334B"/>
<path d="M771.8 64.8008H768.4V68.2008H771.8V64.8008Z" fill="#24334B"/>
<path d="M700.4 68.1992H697V71.5992H700.4V68.1992Z" fill="#24334B"/>
<path d="M703.8 68.1992H700.4V71.5992H703.8V68.1992Z" fill="#24334B"/>
<path d="M707.201 68.1992H703.801V71.5992H707.201V68.1992Z" fill="#24334B"/>
<path d="M710.599 68.1992H707.199V71.5992H710.599V68.1992Z" fill="#24334B"/>
<path d="M717.4 68.1992H714V71.5992H717.4V68.1992Z" fill="#24334B"/>
<path d="M727.599 68.1992H724.199V71.5992H727.599V68.1992Z" fill="#24334B"/>
<path d="M741.201 68.1992H737.801V71.5992H741.201V68.1992Z" fill="#24334B"/>
<path d="M754.8 68.1992H751.4V71.5992H754.8V68.1992Z" fill="#24334B"/>
<path d="M761.599 68.1992H758.199V71.5992H761.599V68.1992Z" fill="#24334B"/>
<path d="M765 68.1992H761.6V71.5992H765V68.1992Z" fill="#24334B"/>
<path d="M768.4 68.1992H765V71.5992H768.4V68.1992Z" fill="#24334B"/>
<path d="M775.201 68.1992H771.801V71.5992H775.201V68.1992Z" fill="#24334B"/>
<path d="M714 71.5996H710.6V74.9996H714V71.5996Z" fill="#24334B"/>
<path d="M731 71.5996H727.6V74.9996H731V71.5996Z" fill="#24334B"/>
<path d="M734.4 71.5996H731V74.9996H734.4V71.5996Z" fill="#24334B"/>
<path d="M744.599 71.5996H741.199V74.9996H744.599V71.5996Z" fill="#24334B"/>
<path d="M751.4 71.5996H748V74.9996H751.4V71.5996Z" fill="#24334B"/>
<path d="M765 71.5996H761.6V74.9996H765V71.5996Z" fill="#24334B"/>
<path d="M771.8 71.5996H768.4V74.9996H771.8V71.5996Z" fill="#24334B"/>
<path d="M680 75H676.6V78.4H680V75Z" fill="#24334B"/>
<path d="M683.4 75H680V78.4H683.4V75Z" fill="#24334B"/>
<path d="M686.8 75H683.4V78.4H686.8V75Z" fill="#24334B"/>
<path d="M690.201 75H686.801V78.4H690.201V75Z" fill="#24334B"/>
<path d="M693.599 75H690.199V78.4H693.599V75Z" fill="#24334B"/>
<path d="M700.4 75H697V78.4H700.4V75Z" fill="#24334B"/>
<path d="M703.8 75H700.4V78.4H703.8V75Z" fill="#24334B"/>
<path d="M710.599 75H707.199V78.4H710.599V75Z" fill="#24334B"/>
<path d="M714 75H710.6V78.4H714V75Z" fill="#24334B"/>
<path d="M717.4 75H714V78.4H717.4V75Z" fill="#24334B"/>
<path d="M724.201 75H720.801V78.4H724.201V75Z" fill="#24334B"/>
<path d="M727.599 75H724.199V78.4H727.599V75Z" fill="#24334B"/>
<path d="M734.4 75H731V78.4H734.4V75Z" fill="#24334B"/>
<path d="M737.8 75H734.4V78.4H737.8V75Z" fill="#24334B"/>
<path d="M744.599 75H741.199V78.4H744.599V75Z" fill="#24334B"/>
<path d="M751.4 75H748V78.4H751.4V75Z" fill="#24334B"/>
<path d="M761.599 75H758.199V78.4H761.599V75Z" fill="#24334B"/>
<path d="M765 75H761.6V78.4H765V75Z" fill="#24334B"/>
<path d="M768.4 75H765V78.4H768.4V75Z" fill="#24334B"/>
<path d="M771.8 75H768.4V78.4H771.8V75Z" fill="#24334B"/>
<path d="M680 78.4004H676.6V81.8004H680V78.4004Z" fill="#24334B"/>
<path d="M690.201 78.4004H686.801V81.8004H690.201V78.4004Z" fill="#24334B"/>
<path d="M693.599 78.4004H690.199V81.8004H693.599V78.4004Z" fill="#24334B"/>
<path d="M697 78.4004H693.6V81.8004H697V78.4004Z" fill="#24334B"/>
<path d="M707.201 78.4004H703.801V81.8004H707.201V78.4004Z" fill="#24334B"/>
<path d="M714 78.4004H710.6V81.8004H714V78.4004Z" fill="#24334B"/>
<path d="M720.8 78.4004H717.4V81.8004H720.8V78.4004Z" fill="#24334B"/>
<path d="M727.599 78.4004H724.199V81.8004H727.599V78.4004Z" fill="#24334B"/>
<path d="M731 78.4004H727.6V81.8004H731V78.4004Z" fill="#24334B"/>
<path d="M734.4 78.4004H731V81.8004H734.4V78.4004Z" fill="#24334B"/>
<path d="M741.201 78.4004H737.801V81.8004H741.201V78.4004Z" fill="#24334B"/>
<path d="M744.599 78.4004H741.199V81.8004H744.599V78.4004Z" fill="#24334B"/>
<path d="M751.4 78.4004H748V81.8004H751.4V78.4004Z" fill="#24334B"/>
<path d="M761.599 78.4004H758.199V81.8004H761.599V78.4004Z" fill="#24334B"/>
<path d="M768.4 78.4004H765V81.8004H768.4V78.4004Z" fill="#24334B"/>
<path d="M686.8 81.8008H683.4V85.2008H686.8V81.8008Z" fill="#24334B"/>
<path d="M693.599 81.8008H690.199V85.2008H693.599V81.8008Z" fill="#24334B"/>
<path d="M700.4 81.8008H697V85.2008H700.4V81.8008Z" fill="#24334B"/>
<path d="M703.8 81.8008H700.4V85.2008H703.8V81.8008Z" fill="#24334B"/>
<path d="M714 81.8008H710.6V85.2008H714V81.8008Z" fill="#24334B"/>
<path d="M717.4 81.8008H714V85.2008H717.4V81.8008Z" fill="#24334B"/>
<path d="M720.8 81.8008H717.4V85.2008H720.8V81.8008Z" fill="#24334B"/>
<path d="M724.201 81.8008H720.801V85.2008H724.201V81.8008Z" fill="#24334B"/>
<path d="M727.599 81.8008H724.199V85.2008H727.599V81.8008Z" fill="#24334B"/>
<path d="M734.4 81.8008H731V85.2008H734.4V81.8008Z" fill="#24334B"/>
<path d="M741.201 81.8008H737.801V85.2008H741.201V81.8008Z" fill="#24334B"/>
<path d="M754.8 81.8008H751.4V85.2008H754.8V81.8008Z" fill="#24334B"/>
<path d="M758.201 81.8008H754.801V85.2008H758.201V81.8008Z" fill="#24334B"/>
<path d="M761.599 81.8008H758.199V85.2008H761.599V81.8008Z" fill="#24334B"/>
<path d="M768.4 81.8008H765V85.2008H768.4V81.8008Z" fill="#24334B"/>
<path d="M775.201 81.8008H771.801V85.2008H775.201V81.8008Z" fill="#24334B"/>
<path d="M690.201 85.1992H686.801V88.5992H690.201V85.1992Z" fill="#24334B"/>
<path d="M697 85.1992H693.6V88.5992H697V85.1992Z" fill="#24334B"/>
<path d="M707.201 85.1992H703.801V88.5992H707.201V85.1992Z" fill="#24334B"/>
<path d="M720.8 85.1992H717.4V88.5992H720.8V85.1992Z" fill="#24334B"/>
<path d="M741.201 85.1992H737.801V88.5992H741.201V85.1992Z" fill="#24334B"/>
<path d="M744.599 85.1992H741.199V88.5992H744.599V85.1992Z" fill="#24334B"/>
<path d="M748 85.1992H744.6V88.5992H748V85.1992Z" fill="#24334B"/>
<path d="M758.201 85.1992H754.801V88.5992H758.201V85.1992Z" fill="#24334B"/>
<path d="M768.4 85.1992H765V88.5992H768.4V85.1992Z" fill="#24334B"/>
<path d="M771.8 85.1992H768.4V88.5992H771.8V85.1992Z" fill="#24334B"/>
<path d="M680 88.5996H676.6V91.9996H680V88.5996Z" fill="#24334B"/>
<path d="M683.4 88.5996H680V91.9996H683.4V88.5996Z" fill="#24334B"/>
<path d="M693.599 88.5996H690.199V91.9996H693.599V88.5996Z" fill="#24334B"/>
<path d="M700.4 88.5996H697V91.9996H700.4V88.5996Z" fill="#24334B"/>
<path d="M703.8 88.5996H700.4V91.9996H703.8V88.5996Z" fill="#24334B"/>
<path d="M710.599 88.5996H707.199V91.9996H710.599V88.5996Z" fill="#24334B"/>
<path d="M714 88.5996H710.6V91.9996H714V88.5996Z" fill="#24334B"/>
<path d="M724.201 88.5996H720.801V91.9996H724.201V88.5996Z" fill="#24334B"/>
<path d="M744.599 88.5996H741.199V91.9996H744.599V88.5996Z" fill="#24334B"/>
<path d="M748 88.5996H744.6V91.9996H748V88.5996Z" fill="#24334B"/>
<path d="M751.4 88.5996H748V91.9996H751.4V88.5996Z" fill="#24334B"/>
<path d="M754.8 88.5996H751.4V91.9996H754.8V88.5996Z" fill="#24334B"/>
<path d="M758.201 88.5996H754.801V91.9996H758.201V88.5996Z" fill="#24334B"/>
<path d="M761.599 88.5996H758.199V91.9996H761.599V88.5996Z" fill="#24334B"/>
<path d="M768.4 88.5996H765V91.9996H768.4V88.5996Z" fill="#24334B"/>
<path d="M775.201 88.5996H771.801V91.9996H775.201V88.5996Z" fill="#24334B"/>
<path d="M707.201 92H703.801V95.4H707.201V92Z" fill="#24334B"/>
<path d="M710.599 92H707.199V95.4H710.599V92Z" fill="#24334B"/>
<path d="M720.8 92H717.4V95.4H720.8V92Z" fill="#24334B"/>
<path d="M724.201 92H720.801V95.4H724.201V92Z" fill="#24334B"/>
<path d="M727.599 92H724.199V95.4H727.599V92Z" fill="#24334B"/>
<path d="M731 92H727.6V95.4H731V92Z" fill="#24334B"/>
<path d="M741.201 92H737.801V95.4H741.201V92Z" fill="#24334B"/>
<path d="M744.599 92H741.199V95.4H744.599V92Z" fill="#24334B"/>
<path d="M748 92H744.6V95.4H748V92Z" fill="#24334B"/>
<path d="M761.599 92H758.199V95.4H761.599V92Z" fill="#24334B"/>
<path d="M768.4 92H765V95.4H768.4V92Z" fill="#24334B"/>
<path d="M680 95.4004H676.6V98.8004H680V95.4004Z" fill="#24334B"/>
<path d="M683.4 95.4004H680V98.8004H683.4V95.4004Z" fill="#24334B"/>
<path d="M686.8 95.4004H683.4V98.8004H686.8V95.4004Z" fill="#24334B"/>
<path d="M690.201 95.4004H686.801V98.8004H690.201V95.4004Z" fill="#24334B"/>
<path d="M693.599 95.4004H690.199V98.8004H693.599V95.4004Z" fill="#24334B"/>
<path d="M697 95.4004H693.6V98.8004H697V95.4004Z" fill="#24334B"/>
<path d="M700.4 95.4004H697V98.8004H700.4V95.4004Z" fill="#24334B"/>
<path d="M707.201 95.4004H703.801V98.8004H707.201V95.4004Z" fill="#24334B"/>
<path d="M717.4 95.4004H714V98.8004H717.4V95.4004Z" fill="#24334B"/>
<path d="M720.8 95.4004H717.4V98.8004H720.8V95.4004Z" fill="#24334B"/>
<path d="M724.201 95.4004H720.801V98.8004H724.201V95.4004Z" fill="#24334B"/>
<path d="M727.599 95.4004H724.199V98.8004H727.599V95.4004Z" fill="#24334B"/>
<path d="M737.8 95.4004H734.4V98.8004H737.8V95.4004Z" fill="#24334B"/>
<path d="M741.201 95.4004H737.801V98.8004H741.201V95.4004Z" fill="#24334B"/>
<path d="M744.599 95.4004H741.199V98.8004H744.599V95.4004Z" fill="#24334B"/>
<path d="M748 95.4004H744.6V98.8004H748V95.4004Z" fill="#24334B"/>
<path d="M754.8 95.4004H751.4V98.8004H754.8V95.4004Z" fill="#24334B"/>
<path d="M761.599 95.4004H758.199V98.8004H761.599V95.4004Z" fill="#24334B"/>
<path d="M768.4 95.4004H765V98.8004H768.4V95.4004Z" fill="#24334B"/>
<path d="M775.201 95.4004H771.801V98.8004H775.201V95.4004Z" fill="#24334B"/>
<path d="M680 98.8008H676.6V102.201H680V98.8008Z" fill="#24334B"/>
<path d="M700.4 98.8008H697V102.201H700.4V98.8008Z" fill="#24334B"/>
<path d="M707.201 98.8008H703.801V102.201H707.201V98.8008Z" fill="#24334B"/>
<path d="M717.4 98.8008H714V102.201H717.4V98.8008Z" fill="#24334B"/>
<path d="M720.8 98.8008H717.4V102.201H720.8V98.8008Z" fill="#24334B"/>
<path d="M724.201 98.8008H720.801V102.201H724.201V98.8008Z" fill="#24334B"/>
<path d="M727.599 98.8008H724.199V102.201H727.599V98.8008Z" fill="#24334B"/>
<path d="M748 98.8008H744.6V102.201H748V98.8008Z" fill="#24334B"/>
<path d="M761.599 98.8008H758.199V102.201H761.599V98.8008Z" fill="#24334B"/>
<path d="M765 98.8008H761.6V102.201H765V98.8008Z" fill="#24334B"/>
<path d="M771.8 98.8008H768.4V102.201H771.8V98.8008Z" fill="#24334B"/>
<path d="M680 102.199H676.6V105.599H680V102.199Z" fill="#24334B"/>
<path d="M686.8 102.199H683.4V105.599H686.8V102.199Z" fill="#24334B"/>
<path d="M690.201 102.199H686.801V105.599H690.201V102.199Z" fill="#24334B"/>
<path d="M693.599 102.199H690.199V105.599H693.599V102.199Z" fill="#24334B"/>
<path d="M700.4 102.199H697V105.599H700.4V102.199Z" fill="#24334B"/>
<path d="M707.201 102.199H703.801V105.599H707.201V102.199Z" fill="#24334B"/>
<path d="M714 102.199H710.6V105.599H714V102.199Z" fill="#24334B"/>
<path d="M717.4 102.199H714V105.599H717.4V102.199Z" fill="#24334B"/>
<path d="M727.599 102.199H724.199V105.599H727.599V102.199Z" fill="#24334B"/>
<path d="M731 102.199H727.6V105.599H731V102.199Z" fill="#24334B"/>
<path d="M734.4 102.199H731V105.599H734.4V102.199Z" fill="#24334B"/>
<path d="M744.599 102.199H741.199V105.599H744.599V102.199Z" fill="#24334B"/>
<path d="M748 102.199H744.6V105.599H748V102.199Z" fill="#24334B"/>
<path d="M751.4 102.199H748V105.599H751.4V102.199Z" fill="#24334B"/>
<path d="M754.8 102.199H751.4V105.599H754.8V102.199Z" fill="#24334B"/>
<path d="M758.201 102.199H754.801V105.599H758.201V102.199Z" fill="#24334B"/>
<path d="M761.599 102.199H758.199V105.599H761.599V102.199Z" fill="#24334B"/>
<path d="M768.4 102.199H765V105.599H768.4V102.199Z" fill="#24334B"/>
<path d="M771.8 102.199H768.4V105.599H771.8V102.199Z" fill="#24334B"/>
<path d="M680 105.6H676.6V109H680V105.6Z" fill="#24334B"/>
<path d="M686.8 105.6H683.4V109H686.8V105.6Z" fill="#24334B"/>
<path d="M690.201 105.6H686.801V109H690.201V105.6Z" fill="#24334B"/>
<path d="M693.599 105.6H690.199V109H693.599V105.6Z" fill="#24334B"/>
<path d="M700.4 105.6H697V109H700.4V105.6Z" fill="#24334B"/>
<path d="M710.599 105.6H707.199V109H710.599V105.6Z" fill="#24334B"/>
<path d="M714 105.6H710.6V109H714V105.6Z" fill="#24334B"/>
<path d="M717.4 105.6H714V109H717.4V105.6Z" fill="#24334B"/>
<path d="M720.8 105.6H717.4V109H720.8V105.6Z" fill="#24334B"/>
<path d="M727.599 105.6H724.199V109H727.599V105.6Z" fill="#24334B"/>
<path d="M731 105.6H727.6V109H731V105.6Z" fill="#24334B"/>
<path d="M734.4 105.6H731V109H734.4V105.6Z" fill="#24334B"/>
<path d="M737.8 105.6H734.4V109H737.8V105.6Z" fill="#24334B"/>
<path d="M758.201 105.6H754.801V109H758.201V105.6Z" fill="#24334B"/>
<path d="M768.4 105.6H765V109H768.4V105.6Z" fill="#24334B"/>
<path d="M771.8 105.6H768.4V109H771.8V105.6Z" fill="#24334B"/>
<path d="M680 109H676.6V112.4H680V109Z" fill="#24334B"/>
<path d="M686.8 109H683.4V112.4H686.8V109Z" fill="#24334B"/>
<path d="M690.201 109H686.801V112.4H690.201V109Z" fill="#24334B"/>
<path d="M693.599 109H690.199V112.4H693.599V109Z" fill="#24334B"/>
<path d="M700.4 109H697V112.4H700.4V109Z" fill="#24334B"/>
<path d="M710.599 109H707.199V112.4H710.599V109Z" fill="#24334B"/>
<path d="M731 109H727.6V112.4H731V109Z" fill="#24334B"/>
<path d="M744.599 109H741.199V112.4H744.599V109Z" fill="#24334B"/>
<path d="M754.8 109H751.4V112.4H754.8V109Z" fill="#24334B"/>
<path d="M758.201 109H754.801V112.4H758.201V109Z" fill="#24334B"/>
<path d="M765 109H761.6V112.4H765V109Z" fill="#24334B"/>
<path d="M768.4 109H765V112.4H768.4V109Z" fill="#24334B"/>
<path d="M771.8 109H768.4V112.4H771.8V109Z" fill="#24334B"/>
<path d="M775.201 109H771.801V112.4H775.201V109Z" fill="#24334B"/>
<path d="M680 112.4H676.6V115.8H680V112.4Z" fill="#24334B"/>
<path d="M700.4 112.4H697V115.8H700.4V112.4Z" fill="#24334B"/>
<path d="M717.4 112.4H714V115.8H717.4V112.4Z" fill="#24334B"/>
<path d="M720.8 112.4H717.4V115.8H720.8V112.4Z" fill="#24334B"/>
<path d="M727.599 112.4H724.199V115.8H727.599V112.4Z" fill="#24334B"/>
<path d="M741.201 112.4H737.801V115.8H741.201V112.4Z" fill="#24334B"/>
<path d="M748 112.4H744.6V115.8H748V112.4Z" fill="#24334B"/>
<path d="M754.8 112.4H751.4V115.8H754.8V112.4Z" fill="#24334B"/>
<path d="M761.599 112.4H758.199V115.8H761.599V112.4Z" fill="#24334B"/>
<path d="M680 115.801H676.6V119.201H680V115.801Z" fill="#24334B"/>
<path d="M683.4 115.801H680V119.201H683.4V115.801Z" fill="#24334B"/>
<path d="M686.8 115.801H683.4V119.201H686.8V115.801Z" fill="#24334B"/>
<path d="M690.201 115.801H686.801V119.201H690.201V115.801Z" fill="#24334B"/>
<path d="M693.599 115.801H690.199V119.201H693.599V115.801Z" fill="#24334B"/>
<path d="M697 115.801H693.6V119.201H697V115.801Z" fill="#24334B"/>
<path d="M700.4 115.801H697V119.201H700.4V115.801Z" fill="#24334B"/>
<path d="M720.8 115.801H717.4V119.201H720.8V115.801Z" fill="#24334B"/>
<path d="M724.201 115.801H720.801V119.201H724.201V115.801Z" fill="#24334B"/>
<path d="M727.599 115.801H724.199V119.201H727.599V115.801Z" fill="#24334B"/>
<path d="M731 115.801H727.6V119.201H731V115.801Z" fill="#24334B"/>
<path d="M737.8 115.801H734.4V119.201H737.8V115.801Z" fill="#24334B"/>
<path d="M744.599 115.801H741.199V119.201H744.599V115.801Z" fill="#24334B"/>
<path d="M748 115.801H744.6V119.201H748V115.801Z" fill="#24334B"/>
<path d="M751.4 115.801H748V119.201H751.4V115.801Z" fill="#24334B"/>
<path d="M754.8 115.801H751.4V119.201H754.8V115.801Z" fill="#24334B"/>
<path d="M758.201 115.801H754.801V119.201H758.201V115.801Z" fill="#24334B"/>
<path d="M761.599 115.801H758.199V119.201H761.599V115.801Z" fill="#24334B"/>
<path d="M771.8 115.801H768.4V119.201H771.8V115.801Z" fill="#24334B"/>
</g>
<rect x="0.5" y="0.5" width="795" height="139" stroke="#CDCDCD"/>
<defs>
<clipPath id="clip0_1812_8434">
<rect width="100" height="100" fill="white" transform="translate(676 20)"/>
</clipPath>
</defs>
</svg>
